<?xml version="1.0" encoding="UTF-8"?>
<svg width="1920" height="1080" viewBox="0 0 1920 1080" xmlns="http://www.w3.org/2000/svg">
  <defs>
    <linearGradient id="skyGrad" x1="0%" y1="0%" x2="0%" y2="100%">
      <stop offset="0%" style="stop-color:#0f172a"/>
      <stop offset="50%" style="stop-color:#1e293b"/>
      <stop offset="100%" style="stop-color:#334155"/>
    </linearGradient>
    <pattern id="gridPattern" width="40" height="40" patternUnits="userSpaceOnUse">
      <path d="M40 0 L0 0 0 40" fill="none" stroke="#c9a050" stroke-width="0.5" opacity="0.15"/>
    </pattern>
    <filter id="glow">
      <feGaussianBlur stdDeviation="2" result="coloredBlur"/>
      <feMerge>
        <feMergeNode in="coloredBlur"/>
        <feMergeNode in="SourceGraphic"/>
      </feMerge>
    </filter>
  </defs>
  
  <!-- Background -->
  <rect width="1920" height="1080" fill="url(#skyGrad)"/>
  <rect width="1920" height="1080" fill="url(#gridPattern)"/>
  
  <!-- Decorative elements -->
  <circle cx="200" cy="200" r="150" fill="none" stroke="#c9a050" stroke-width="1" opacity="0.1"/>
  <circle cx="1700" cy="800" r="200" fill="none" stroke="#c9a050" stroke-width="1" opacity="0.1"/>
  <circle cx="960" cy="540" r="300" fill="none" stroke="#c9a050" stroke-width="1" opacity="0.05"/>
  
  <!-- Corner decorations -->
  <g opacity="0.3">
    <path d="M50 50 L150 50 L150 70 L70 70 L70 150 L50 150 Z" fill="#c9a050"/>
    <path d="M1870 50 L1770 50 L1770 70 L1850 70 L1850 150 L1870 150 Z" fill="#c9a050"/>
    <path d="M50 1030 L150 1030 L150 1010 L70 1010 L70 930 L50 930 Z" fill="#c9a050"/>
    <path d="M1870 1030 L1770 1030 L1770 1010 L1850 1010 L1850 930 L1870 930 Z" fill="#c9a050"/>
  </g>
  
  <!-- Title area -->
  <rect x="760" y="30" width="400" height="60" rx="5" fill="#1a1a2e" opacity="0.8"/>
  <rect x="765" y="35" width="390" height="50" rx="3" fill="none" stroke="#c9a050" stroke-width="2"/>
</svg>