<?xml version="1.0" encoding="UTF-8"?>
<svg width="200" height="150" viewBox="0 0 200 150" xmlns="http://www.w3.org/2000/svg">
  <defs>
    <linearGradient id="inkBg4" x1="0%" y1="0%" x2="100%" y2="100%">
      <stop offset="0%" style="stop-color:#f5f5f0"/>
      <stop offset="100%" style="stop-color:#e8e4dc"/>
    </linearGradient>
  </defs>
  
  <rect x="2" y="2" width="196" height="146" rx="8" fill="url(#inkBg4)"/>
  
  <!-- 水墨渲染 -->
  <ellipse cx="100" cy="75" rx="50" ry="35" fill="#3a3020" opacity="0.06"/>
  
  <!-- 三足鼎 -->
  <g opacity="0.7">
    <!-- 鼎足 -->
    <line x1="70" y1="95" x2="70" y2="70" stroke="#4a3a2a" stroke-width="3"/>
    <line x1="100" y1="95" x2="100" y2="55" stroke="#4a3a2a" stroke-width="3"/>
    <line x1="130" y1="95" x2="130" y2="70" stroke="#4a3a2a" stroke-width="3"/>
    <!-- 鼎身 -->
    <ellipse cx="100" cy="70" rx="35" ry="10" fill="none" stroke="#4a3a2a" stroke-width="2"/>
    <ellipse cx="100" cy="55" rx="25" ry="8" fill="none" stroke="#4a3a2a" stroke-width="2"/>
    <!-- 鼎耳 -->
    <path d="M75 55 Q70 45 75 40" fill="none" stroke="#4a3a2a" stroke-width="2"/>
    <path d="M125 55 Q130 45 125 40" fill="none" stroke="#4a3a2a" stroke-width="2"/>
  </g>
  
  <!-- 魏蜀吴标记 -->
  <text x="70" y="115" font-family="STKaiti" font-size="12" fill="#8b0000" text-anchor="middle" opacity="0.8">魏</text>
  <text x="100" y="115" font-family="STKaiti" font-size="12" fill="#228b22" text-anchor="middle" opacity="0.8">蜀</text>
  <text x="130" y="115" font-family="STKaiti" font-size="12" fill="#1a3a8a" text-anchor="middle" opacity="0.8">吴</text>
  
  <!-- 印章 -->
  <rect x="150" y="20" width="30" height="35" fill="#8b6914" opacity="0.8" rx="2"/>
  <text x="165" y="42" font-family="SimHei" font-size="16" fill="#fff" text-anchor="middle">鼎</text>
  
  <!-- 书法标题 -->
  <text x="100" y="128" font-family="STKaiti, KaiTi" font-size="18" fill="#5a4a3a" text-anchor="middle" font-weight="bold">三国鼎立</text>
  
  <rect x="2" y="2" width="196" height="146" rx="8" fill="none" stroke="#8b6914" stroke-width="2"/>
</svg>