<?xml version="1.0" encoding="UTF-8"?>
<svg width="200" height="150" viewBox="0 0 200 150" xmlns="http://www.w3.org/2000/svg">
  <defs>
    <linearGradient id="inkBg3" x1="0%" y1="0%" x2="100%" y2="100%">
      <stop offset="0%" style="stop-color:#f0f0f5"/>
      <stop offset="100%" style="stop-color:#e0e0e8"/>
    </linearGradient>
  </defs>
  
  <rect x="2" y="2" width="196" height="146" rx="8" fill="url(#inkBg3)"/>
  
  <!-- 水墨水波 -->
  <g opacity="0.4">
    <path d="M10 100 Q30 90 50 100 T90 100 T130 100 T170 100" fill="none" stroke="#1a3a6a" stroke-width="1.5"/>
    <path d="M20 110 Q40 100 60 110 T100 110 T140 110 T180 110" fill="none" stroke="#1a3a6a" stroke-width="1.5"/>
  </g>
  
  <!-- 战船水墨 -->
  <g opacity="0.7">
    <!-- 船身 -->
    <path d="M70 85 Q100 90 130 85 L125 75 L75 75 Z" fill="none" stroke="#2a2a2a" stroke-width="2"/>
    <!-- 桅杆 -->
    <line x1="85" y1="75" x2="85" y2="50" stroke="#2a2a2a" stroke-width="1.5"/>
    <line x1="115" y1="75" x2="115" y2="50" stroke="#2a2a2a" stroke-width="1.5"/>
    <!-- 帆 -->
    <path d="M75 55 L85 40 L95 55" fill="none" stroke="#3a3a3a" stroke-width="1.5"/>
    <path d="M105 55 L115 40 L125 55" fill="none" stroke="#3a3a3a" stroke-width="1.5"/>
  </g>
  
  <!-- 火焰 -->
  <g opacity="0.5">
    <path d="M130 60 Q135 45 140 60 Q145 50 150 65" fill="none" stroke="#8b0000" stroke-width="2"/>
    <ellipse cx="140" cy="55" rx="5" ry="10" fill="#8b0000" opacity="0.3"/>
  </g>
  
  <!-- 月亮 -->
  <circle cx="45" cy="50" r="15" fill="none" stroke="#4a4a5a" stroke-width="1" opacity="0.4"/>
  
  <!-- 印章 -->
  <rect x="150" y="20" width="30" height="35" fill="#1a4a8a" opacity="0.8" rx="2"/>
  <text x="165" y="42" font-family="SimHei" font-size="16" fill="#fff" text-anchor="middle">战</text>
  
  <!-- 书法标题 -->
  <text x="100" y="128" font-family="STKaiti, KaiTi" font-size="18" fill="#1a3a6a" text-anchor="middle" font-weight="bold">赤壁之战</text>
  
  <rect x="2" y="2" width="196" height="146" rx="8" fill="none" stroke="#1a4a8a" stroke-width="2"/>
</svg>