<svg xmlns="http://www.w3.org/2000/svg" width="32" height="32" viewBox="0 0 32 32" shape-rendering="crispEdges">
<rect width="32" height="32" fill="#397f92"/><path d="M0 3h32v4H0zM0 17h32v4H0zM0 29h32v3H0z" fill="#4d9aab" opacity=".7"/>
<path d="M2 10h8m12 2h6M5 25h8m11 1h5" stroke="#a6ced1" stroke-width="2"/><path d="M0 0h3v32H0z" fill="#d3c18a"/><path d="M3 0h2v32H3z" fill="#697f68"/><path d="M29 0h3v32h-3z" fill="#d3c18a"/><path d="M27 0h2v32h-2z" fill="#697f68"/><path d="M0 0h32v3H0z" fill="#d3c18a"/><path d="M0 3h32v2H0z" fill="#697f68"/></svg>
