<?xml version="1.0" encoding="UTF-8"?>
<svg width="200" height="150" viewBox="0 0 200 150" xmlns="http://www.w3.org/2000/svg">
  <defs>
    <linearGradient id="flatBg3" x1="0%" y1="0%" x2="100%" y2="100%">
      <stop offset="0%" style="stop-color:#4dabf7"/>
      <stop offset="100%" style="stop-color:#1864ab"/>
    </linearGradient>
  </defs>
  
  <rect x="2" y="2" width="196" height="146" rx="8" fill="url(#flatBg3)"/>
  
  <!-- 战船插画 -->
  <g>
    <!-- 船身 -->
    <path d="M65 95 Q100 100 135 95 L130 85 L70 85 Z" fill="#5c4033"/>
    <!-- 桅杆 -->
    <rect x="85" y="55" width="3" height="30" fill="#8b4513"/>
    <rect x="112" y="55" width="3" height="30" fill="#8b4513"/>
    <!-- 帆 -->
    <path d="M70 60 L86 45 L102 60 Z" fill="#f5f5dc"/>
    <path d="M98 60 L114 45 L130 60 Z" fill="#f5f5dc"/>
  </g>
  
  <!-- 水波 -->
  <g fill="#228be6" opacity="0.5">
    <ellipse cx="50" cy="105" rx="30" ry="8"/>
    <ellipse cx="150" cy="105" rx="35" ry="10"/>
  </g>
  
  <!-- 火焰 -->
  <g>
    <path d="M145 70 Q150 55 155 70 Q160 60 163 75" fill="#ff6b6b"/>
  </g>
  
  <!-- 月亮 -->
  <circle cx="40" cy="40" r="12" fill="#ffd700" opacity="0.6"/>
  
  <!-- 标题 -->
  <text x="100" y="125" font-family="SimHei, Microsoft YaHei" font-size="16" fill="#fff" text-anchor="middle" font-weight="bold">赤壁之战</text>
  
  <rect x="2" y="2" width="196" height="146" rx="8" fill="none" stroke="#fff" stroke-width="2" opacity="0.5"/>
</svg>