<?xml version="1.0" encoding="UTF-8"?>
<svg width="200" height="150" viewBox="0 0 200 150" xmlns="http://www.w3.org/2000/svg">
  <defs>
    <linearGradient id="inkBg2" x1="0%" y1="0%" x2="100%" y2="100%">
      <stop offset="0%" style="stop-color:#f0f5f0"/>
      <stop offset="100%" style="stop-color:#e0e8e0"/>
    </linearGradient>
  </defs>
  
  <rect x="2" y="2" width="196" height="146" rx="8" fill="url(#inkBg2)"/>
  
  <!-- 水墨渲染 -->
  <ellipse cx="100" cy="80" rx="55" ry="40" fill="#1a3a1a" opacity="0.06"/>
  
  <!-- 军旗水墨 -->
  <g opacity="0.75">
    <!-- 旗杆 -->
    <line x1="100" y1="35" x2="100" y2="95" stroke="#2a2a2a" stroke-width="3"/>
    <!-- 旗帜 -->
    <path d="M100 35 L140 55 L100 75" fill="none" stroke="#1a3a1a" stroke-width="2"/>
    <!-- 飘动效果 -->
    <path d="M100 45 Q115 48 130 45" fill="none" stroke="#2a4a2a" stroke-width="1" opacity="0.6"/>
    <path d="M100 55 Q115 58 130 55" fill="none" stroke="#2a4a2a" stroke-width="1" opacity="0.6"/>
  </g>
  
  <!-- 战马剪影 -->
  <g opacity="0.6">
    <ellipse cx="65" cy="95" rx="18" ry="10" fill="#3a3a3a"/>
    <circle cx="55" cy="85" r="7" fill="#3a3a3a"/>
    <path d="M60 83 L70 75" stroke="#3a3a3a" stroke-width="2"/>
    <!-- 马腿 -->
    <line x1="58" y1="100" x2="55" y2="110" stroke="#3a3a3a" stroke-width="1.5"/>
    <line x1="65" y1="100" x2="68" y2="110" stroke="#3a3a3a" stroke-width="1.5"/>
  </g>
  
  <!-- 远山 -->
  <path d="M150 115 Q160 95 170 105 Q180 90 190 110" fill="none" stroke="#4a5a4a" stroke-width="1.5" opacity="0.5"/>
  
  <!-- 印章 -->
  <rect x="150" y="20" width="30" height="35" fill="#2a5a2a" opacity="0.8" rx="2"/>
  <text x="165" y="42" font-family="SimHei" font-size="16" fill="#fff" text-anchor="middle">起</text>
  
  <!-- 书法标题 -->
  <text x="100" y="128" font-family="STKaiti, KaiTi" font-size="18" fill="#1a3a1a" text-anchor="middle" font-weight="bold">曹操崛起</text>
  
  <rect x="2" y="2" width="196" height="146" rx="8" fill="none" stroke="#2a5a2a" stroke-width="2"/>
</svg>